<?xml version="1.0" encoding="iso-8859-1"?>
<!-- Generator: Adobe Illustrator 19.0.0, SVG Export Plug-In . SVG Version: 6.00 Build 0)  -->
<svg version="1.1" id="Capa_1" xmlns="http://www.w3.org/2000/svg" xmlns:xlink="http://www.w3.org/1999/xlink" x="0px" y="0px"
	 viewBox="0 0 512 512" style="enable-background:new 0 0 512 512;" xml:space="preserve">
<path style="fill:#4CAF50;" d="M256,0C114.615,0,0,114.615,0,256s114.615,256,256,256s256-114.615,256-256
	C511.835,114.683,397.317,0.165,256,0z"/>
<path style="fill:#FAFAFA;" d="M426.091,199.211C424.614,194.898,420.559,192,416,192H305.877l-39.979-99.968
	c-2.78-5.473-9.471-7.656-14.943-4.875c-2.101,1.067-3.808,2.775-4.875,4.875L206.123,192H96
	c-5.891-0.005-10.671,4.766-10.676,10.657c-0.003,3.299,1.521,6.414,4.127,8.436l90.389,70.4l-30.123,110.379
	c-1.544,5.685,1.813,11.546,7.498,13.09c2.974,0.808,6.152,0.29,8.716-1.42L256,343.467l90.091,60.053
	c4.901,3.269,11.524,1.947,14.793-2.954c1.71-2.564,2.228-5.742,1.42-8.716L332.16,281.387l90.389-70.4
	C426.101,208.205,427.519,203.49,426.091,199.211z"/>
<g>
</g>
<g>
</g>
<g>
</g>
<g>
</g>
<g>
</g>
<g>
</g>
<g>
</g>
<g>
</g>
<g>
</g>
<g>
</g>
<g>
</g>
<g>
</g>
<g>
</g>
<g>
</g>
<g>
</g>
</svg>
