<svg width="21" height="20" viewBox="0 0 21 20" fill="none" xmlns="http://www.w3.org/2000/svg">
<g clip-path="url(#clip0_91_354)">
<path d="M20.2324 10C20.2324 15.5234 15.7559 20 10.2324 20C4.70898 20 0.232422 15.5234 0.232422 10C0.232422 4.47656 4.70898 0 10.2324 0C15.7559 0 20.2324 4.47656 20.2324 10ZM7.10742 6.5625V13.4375C7.10742 13.7773 7.29102 14.0898 7.58789 14.2539C7.88086 14.4219 8.24414 14.4141 8.5332 14.2383L14.1582 10.8008C14.4355 10.6289 14.6074 10.3281 14.6074 10C14.6074 9.67188 14.4355 9.37109 14.1582 9.19922L8.5332 5.76172C8.24414 5.55078 7.88086 5.57812 7.58789 5.74609C7.29102 5.91016 7.10742 6.22266 7.10742 6.5625Z" fill="#4E4D51"/>
<path d="M15.2324 10L6.98242 15.1962V4.80385L15.2324 10Z" fill="#F3EEEE"/>
</g>
<defs>
<clipPath id="clip0_91_354">
<rect width="20" height="20" fill="white" transform="translate(0.232422)"/>
</clipPath>
</defs>
</svg>
