<svg width="31" height="30" viewBox="0 0 31 30" fill="none" xmlns="http://www.w3.org/2000/svg">
<g clip-path="url(#clip0_91_350)">
<path d="M15.2324 30C6.94727 30 0.232422 23.2852 0.232422 15C0.232422 6.71484 6.94727 0 15.2324 0C23.5176 0 30.2324 6.71484 30.2324 15C30.2324 23.2852 23.5176 30 15.2324 30ZM13.8262 15C13.8262 15.4688 14.0605 15.9082 14.4531 16.1191L20.0781 19.8691C20.7227 20.3496 21.5957 20.1738 21.9766 19.5293C22.457 18.8848 22.2812 18.0117 21.6367 17.5781L16.6387 14.25V7.03125C16.6387 6.25195 16.0117 5.625 15.1797 5.625C14.4531 5.625 13.7734 6.25195 13.7734 7.03125L13.8262 15Z" fill="#5D5C61"/>
</g>
<defs>
<clipPath id="clip0_91_350">
<rect width="30" height="30" fill="white" transform="translate(0.232422)"/>
</clipPath>
</defs>
</svg>
