<svg width="41" height="35" viewBox="0 0 41 35" fill="none" xmlns="http://www.w3.org/2000/svg">
<circle cx="22.7324" cy="20" r="12.5" fill="#FFFCFC"/>
<path d="M9.23242 35C4.2618 35 0.232422 29.9609 0.232422 23.75C0.232422 18.8438 2.74305 14.6719 6.24492 13.1328C6.2368 12.9219 6.23242 12.7109 6.23242 12.5C6.23242 5.59375 10.7074 0 16.2324 0C19.9387 0 23.1699 2.51953 24.9012 6.26562C25.8512 5.39844 27.0012 5 28.2324 5C31.5449 5 34.2324 8.28906 34.2324 12.5C34.2324 13.4531 34.0887 14.3594 33.8324 15.2031C37.4824 16.125 40.2324 20.1641 40.2324 25C40.2324 30.5234 36.6512 35 32.2324 35H9.23242ZM19.1699 28.1328C19.7574 28.9297 20.7074 28.9297 21.2387 28.1328L26.2387 21.8828C26.8762 21.2188 26.8762 20.0312 26.2387 19.2969C25.7074 18.5703 24.7574 18.5703 24.1699 19.2969L21.7324 22.3516V11.875C21.7324 10.8359 21.0637 10 20.2324 10C19.4012 10 18.7324 10.8359 18.7324 11.875V22.3516L16.2387 19.2969C15.7074 18.5703 14.7574 18.5703 14.1699 19.2969C13.5887 20.0312 13.5887 21.2188 14.1699 21.8828L19.1699 28.1328Z" fill="#5D5C61"/>
</svg>
